name C:\Users\u0150099\Documents\master_thesis\3dpredictsim\Results\debug\Fal_s1_mtjc2_sc_cspx10_cg2_ATx70_Fpsl10_MTc2_MTPm_k1_d01_MTJm_nl_MG_exp5_table_d01_PF_Song2011_ls146_FDB2_lTs125_Fpsl10_ig21_wAk2e+04_wa2e+03_wpMnD1e+03.mot
datacolumns 130
datarows 4
range 0.52121848 0.55249158
endheader
time	pelvis_tilt	pelvis_list	pelvis_rotation	pelvis_tx	pelvis_ty	pelvis_tz	hip_flexion_l	hip_adduction_l	hip_rotation_l	hip_flexion_r	hip_adduction_r	hip_rotation_r	knee_angle_l	knee_angle_r	ankle_angle_l	ankle_angle_r	subtalar_angle_l	subtalar_angle_r	mtj_angle_l	mtj_angle_r	mtp_angle_l	mtp_angle_r	lumbar_extension	lumbar_bending	lumbar_rotation	arm_flex_l	arm_add_l	arm_rot_l	arm_flex_r	arm_add_r	arm_rot_r	elbow_flex_l	elbow_flex_r	pro_sup_l	pro_sup_r	glut_med1_l/activation	glut_med2_l/activation	glut_med3_l/activation	glut_min1_l/activation	glut_min2_l/activation	glut_min3_l/activation	semimem_l/activation	semiten_l/activation	bifemlh_l/activation	bifemsh_l/activation	sar_l/activation	add_long_l/activation	add_brev_l/activation	add_mag1_l/activation	add_mag2_l/activation	add_mag3_l/activation	tfl_l/activation	pect_l/activation	grac_l/activation	glut_max1_l/activation	glut_max2_l/activation	glut_max3_l/activation	iliacus_l/activation	psoas_l/activation	quad_fem_l/activation	gem_l/activation	peri_l/activation	rect_fem_l/activation	vas_med_l/activation	vas_int_l/activation	vas_lat_l/activation	med_gas_l/activation	lat_gas_l/activation	soleus_l/activation	tib_post_l/activation	flex_dig_l/activation	flex_hal_l/activation	tib_ant_l/activation	per_brev_l/activation	per_long_l/activation	per_tert_l/activation	ext_dig_l/activation	ext_hal_l/activation	FDB_l/activation	ercspn_l/activation	intobl_l/activation	extobl_l/activation	glut_med1_r/activation	glut_med2_r/activation	glut_med3_r/activation	glut_min1_r/activation	glut_min2_r/activation	glut_min3_r/activation	semimem_r/activation	semiten_r/activation	bifemlh_r/activation	bifemsh_r/activation	sar_r/activation	add_long_r/activation	add_brev_r/activation	add_mag1_r/activation	add_mag2_r/activation	add_mag3_r/activation	tfl_r/activation	pect_r/activation	grac_r/activation	glut_max1_r/activation	glut_max2_r/activation	glut_max3_r/activation	iliacus_r/activation	psoas_r/activation	quad_fem_r/activation	gem_r/activation	peri_r/activation	rect_fem_r/activation	vas_med_r/activation	vas_int_r/activation	vas_lat_r/activation	med_gas_r/activation	lat_gas_r/activation	soleus_r/activation	tib_post_r/activation	flex_dig_r/activation	flex_hal_r/activation	tib_ant_r/activation	per_brev_r/activation	per_long_r/activation	per_tert_r/activation	ext_dig_r/activation	ext_hal_r/activation	FDB_r/activation	ercspn_r/activation	intobl_r/activation	extobl_r/activation	
          0.52121848	         -2.92829485	          1.50585272	         -3.71330948	          0.69322057	          0.91061985	          0.00414889	         27.28266728	          2.59368845	         -3.87489707	        -19.21260834	          1.18365379	          9.25077694	         -9.95183716	         -5.30401603	          4.81933054	         -1.80351146	          5.68143553	          4.39300000	          0.31400503	          3.15354928	          9.47828551	         21.88791970	         -3.69186623	         -1.08785862	          2.62327612	         -4.49699462	        -13.45070948	          4.64756482	          2.92419051	        -13.82848708	         19.27835415	         28.17902464	         36.63009884	         86.51662706	         86.51662706	          0.05000197	          0.05000112	          0.05002096	          0.05000067	          0.05000091	          0.05000212	          0.29571661	          0.06888448	          0.33237455	          0.06888319	          0.05000112	          0.13223803	          0.16901292	          0.14074104	          0.14171116	          0.15460673	          0.05868666	          0.06198486	          0.12457080	          0.05868582	          0.05869109	          0.14534453	          0.06555444	          0.08696478	          0.12363641	          0.05000174	          0.05000065	          0.05000043	          0.05000184	          0.05000171	          0.05000157	          0.05868690	          0.05693982	          0.05000596	          0.18804421	          0.05003138	          0.05000277	          0.30103112	          0.05002926	          0.15077024	          0.27757144	          0.56448024	          0.33176347	          0.16248391	          0.06571234	          0.07245959	          0.08301757	          0.40784153	          0.07429483	          0.05000023	          0.51399981	          0.20858192	          0.08750374	          0.05002269	          0.05000129	          0.05000063	          0.07666266	          0.11531709	          0.05000030	          0.05000045	          0.05000077	          0.05000261	          0.05000255	          0.65847613	          0.05000140	          0.05000126	          0.05000707	          0.05000389	          0.05000267	          0.53808351	          0.78887498	          0.05000025	          0.05000119	          0.05000034	          0.30703264	          0.05000083	          0.05000084	          0.05000070	          0.42406014	          0.52833368	          0.27685782	          0.64623471	          0.67459041	          0.69931288	          0.05000010	          0.08084855	          0.17887034	          0.05000091	          0.05000022	          0.12053097	          0.87826327	          0.05000005	          0.05000004	          0.05000010	
          0.53164285	         -2.93017626	          1.68290494	         -4.00086352	          0.70924659	          0.90897749	          0.00388397	         27.20025544	          3.06879437	         -3.78767842	        -19.03106752	          0.82132434	          9.22908424	        -10.62808851	         -7.33612154	          4.31414613	         -2.10077884	          5.58673708	          5.50255101	          0.76977487	          2.64691132	          8.76664329	         23.94536292	         -3.52985989	         -1.35315308	          2.78131351	         -4.93439606	        -13.45340586	          4.37486013	          2.51768783	        -13.79560506	         19.07355944	         27.09999948	         38.15977076	         86.51662706	         86.51662706	          0.05868666	          0.05868344	          0.05000031	          0.05868714	          0.05868701	          0.05002880	          0.25194407	          0.05868820	          0.28317619	          0.05868730	          0.05045017	          0.13896600	          0.14399671	          0.11990929	          0.12073704	          0.17537008	          0.05000085	          0.07912676	          0.10613228	          0.05000077	          0.05000396	          0.19964382	          0.08083579	          0.08081956	          0.42042690	          0.13475750	          0.07453874	          0.05000022	          0.05000034	          0.05000032	          0.05000030	          0.05000016	          0.05000024	          0.05000002	          0.21786580	          0.08085012	          0.08084621	          0.32122962	          0.12523657	          0.13972644	          0.26393581	          0.59623741	          0.31026810	          0.14395751	          0.05598549	          0.06173398	          0.07072920	          0.34747302	          0.06329776	          0.05000017	          0.43791698	          0.17770745	          0.07455146	          0.05000240	          0.05000047	          0.05000043	          0.06531494	          0.09824868	          0.05000658	          0.05000137	          0.05000092	          0.05000256	          0.05000159	          0.65638947	          0.05007359	          0.05000092	          0.05000253	          0.05000151	          0.05000135	          0.45843542	          0.72929160	          0.05000020	          0.05000091	          0.05000196	          0.36399880	          0.11166380	          0.11421898	          0.10175021	          0.36664482	          0.45012954	          0.24749657	          0.60850066	          0.62919510	          0.65283829	          0.05000004	          0.06888118	          0.15239357	          0.05000016	          0.05000008	          0.10268977	          0.83935921	          0.05000069	          0.05927907	          0.05000170	
          0.54206722	         -2.93000833	          1.87780039	         -4.27701138	          0.72564228	          0.90743958	          0.00359441	         27.10023831	          3.48832943	         -3.66321847	        -18.80844936	          0.41634400	          9.12027030	        -11.89327173	         -9.38999777	          3.47989963	         -2.58329357	          5.47846378	          6.66510968	          1.24138263	          1.84924174	          8.02453564	         26.33029137	         -3.33517711	         -1.63264447	          2.92553287	         -5.40883792	        -13.48243811	          4.32379330	          2.03027726	        -13.75769987	         18.83309290	         26.01653223	         39.70969856	         86.51662706	         86.51662706	          0.05000009	          0.05000020	          0.11076324	          0.05000031	          0.05000032	          0.05000037	          0.21465079	          0.05000114	          0.24125986	          0.05000039	          0.06888334	          0.11839949	          0.19791472	          0.25305707	          0.18961323	          0.21066069	          0.05000450	          0.06891935	          0.09042279	          0.08485809	          0.16535346	          0.24181358	          0.06888297	          0.06888300	          0.43710397	          0.11481080	          0.06350567	          0.05868939	          0.05869760	          0.05872697	          0.05868894	          0.05871203	          0.06714791	          0.06047696	          0.19997952	          0.06888283	          0.06887969	          0.38654119	          0.19005717	          0.13247793	          0.43327067	          0.62700669	          0.26434173	          0.12264863	          0.05000004	          0.05259600	          0.06025977	          0.29603963	          0.05868737	          0.05868707	          0.37309583	          0.15140301	          0.06351643	          0.05000712	          0.05000137	          0.05000269	          0.05564697	          0.08370629	          0.15035178	          0.05000230	          0.05866351	          0.05026367	          0.05868545	          0.64490771	          0.05000186	          0.05004218	          0.05868828	          0.05868762	          0.05868709	          0.39057703	          0.69356040	          0.05868706	          0.05868729	          0.05000588	          0.34875939	          0.11159678	          0.11834541	          0.11138436	          0.31237368	          0.38350372	          0.23417325	          0.52402988	          0.53606114	          0.55620459	          0.05535654	          0.05868526	          0.12983595	          0.05000012	          0.05000009	          0.08748945	          0.71511561	          0.06077641	          0.06636627	          0.05000030	
          0.55249158	         -2.92771783	          2.11055845	         -4.54931928	          0.74233379	          0.90610436	          0.00331665	         26.92891658	          3.82482864	         -3.41778723	        -18.53085358	         -0.04570934	          8.91062625	        -13.36063816	        -11.46780682	          2.65394318	         -3.28017136	          5.32657914	          7.80227137	          1.57045711	          0.74535539	          7.26054610	         29.01494147	         -3.11218681	         -1.94833028	          3.06345942	         -5.90114852	        -13.53593593	          4.48215108	          1.48390336	        -13.70973713	         18.59763051	         24.91203954	         41.24526306	         86.51662706	         86.51662706	          0.33004352	          0.29404232	          0.27850095	          0.36692787	          0.23015163	          0.17699015	          0.18287773	          0.11194269	          0.20554808	          0.06888387	          0.05868780	          0.10087417	          0.16861977	          0.21559966	          0.16154844	          0.24772673	          0.05000104	          0.05872066	          0.14538237	          0.24735524	          0.26300721	          0.30030464	          0.05868716	          0.05868704	          0.37240302	          0.09781653	          0.06888681	          0.05000209	          0.05000912	          0.05003413	          0.05000173	          0.05002136	          0.05720856	          0.05152503	          0.22727491	          0.05868700	          0.05868660	          0.43238547	          0.16192486	          0.16483946	          0.52572142	          0.73375898	          0.56597245	          0.48237448	          0.05781082	          0.09157110	          0.05134003	          0.26843414	          0.05000045	          0.05000013	          0.45046300	          0.12899219	          0.05411472	          0.05000350	          0.05000031	          0.05000021	          0.05000092	          0.07131726	          0.23700165	          0.05000055	          0.05000046	          0.05000116	          0.05000075	          0.65186983	          0.11889962	          0.05000060	          0.05000268	          0.05000147	          0.05000099	          0.34233941	          0.66718686	          0.05000016	          0.05000063	          0.05000011	          0.29713581	          0.09507818	          0.10082785	          0.09489720	          0.26613549	          0.32673693	          0.20383175	          0.44646200	          0.45671240	          0.47387422	          0.13555161	          0.05000017	          0.11061737	          0.05000019	          0.05000008	          0.07453911	          0.60926267	          0.09305623	          0.05654260	          0.05000019	
